<svg xmlns="http://www.w3.org/2000/svg" viewBox="0 0 24 24" fill="none" stroke="currentColor" stroke-width="2" stroke-linecap="round" stroke-linejoin="round" class="feather feather-brain"><path d="M9.5 12c-1.5 0-3-1-3-3.5 0-2 1.5-3.5 3-3.5 1.5 0 3 1 3 3.5 0 2.5-1.5 3.5-3 3.5z"></path><path d="M14.5 12c1.5 0 3-1 3-3.5 0-2-1.5-3.5-3-3.5-1.5 0-3 1-3 3.5 0 2.5 1.5 3.5 3 3.5z"></path><path d="M12 15c-1.5 0-3-1-3-3.5 0-2 1.5-3.5 3-3.5 1.5 0 3 1 3 3.5 0 2.5-1.5 3.5-3 3.5z"></path><path d="M12 21c-3.5 0-6-2.5-6-6 0-3.5 2.5-6 6-6 3.5 0 6 2.5 6 6 0 3.5-2.5 6-6 6z"></path><path d="M12 2a10 10 0 1 0 0 20 10 10 0 0 0 0-20z"></path></svg>